<svg width="25" height="24" viewBox="0 0 25 24" fill="none" xmlns="http://www.w3.org/2000/svg">
<path d="M8.86304 22.5H6.43848C3.76038 22.5 1.58936 20.3289 1.58936 17.6509V10.0227C1.58936 8.32707 2.47506 6.75459 3.92517 5.87574L9.98657 2.20217C11.5314 1.26594 13.4684 1.26594 15.0132 2.20217L21.0746 5.87574C22.5247 6.75459 23.4104 8.32707 23.4104 10.0227V17.6509C23.4104 20.3289 21.2393 22.5 18.5613 22.5H16.1367M8.86304 22.5V17.6509C8.86304 15.6422 10.4913 14.014 12.4999 14.014C14.5085 14.014 16.1367 15.6422 16.1367 17.6509V22.5M8.86304 22.5H16.1367H8.86304Z" fill="#00A3FF"/>
<path d="M8.86304 22.5H6.43848C3.76038 22.5 1.58936 20.3289 1.58936 17.6509V10.0227C1.58936 8.32707 2.47506 6.75459 3.92517 5.87574L9.98657 2.20217C11.5314 1.26594 13.4684 1.26594 15.0132 2.20217L21.0746 5.87574C22.5247 6.75459 23.4104 8.32707 23.4104 10.0227V17.6509C23.4104 20.3289 21.2393 22.5 18.5613 22.5H16.1367M8.86304 22.5V17.6509C8.86304 15.6422 10.4913 14.014 12.4999 14.014C14.5085 14.014 16.1367 15.6422 16.1367 17.6509V22.5M8.86304 22.5H16.1367" stroke="white" stroke-width="1.5" stroke-linecap="round" stroke-linejoin="round"/>
</svg>
