<svg width="18" height="16" viewBox="0 0 18 16" fill="none" xmlns="http://www.w3.org/2000/svg">
<path d="M13.5896 11.5128L17.0627 14.8855L15.9153 16L12.443 12.6266C11.1511 13.6325 9.54413 14.1797 7.8883 14.1774C3.85982 14.1774 0.590332 11.0017 0.590332 7.08871C0.590332 3.17574 3.85982 0 7.8883 0C11.9168 0 15.1863 3.17574 15.1863 7.08871C15.1886 8.69706 14.6253 10.2579 13.5896 11.5128ZM11.963 10.9284C12.9921 9.90047 13.5668 8.52254 13.5645 7.08871C13.5645 4.04214 11.024 1.57527 7.8883 1.57527C4.7518 1.57527 2.2121 4.04214 2.2121 7.08871C2.2121 10.1345 4.7518 12.6021 7.8883 12.6021C9.36446 12.6044 10.7831 12.0462 11.8414 11.0466L11.963 10.9284Z" fill="#838383"/>
</svg>
