<svg width="36" height="36" viewBox="0 0 36 36" fill="none" xmlns="http://www.w3.org/2000/svg">
<mask id="path-1-inside-1_586_939" fill="white">
<path fill-rule="evenodd" clip-rule="evenodd" d="M11.6842 0.824951L6 4.49369L11.6842 8.16242V6.12031H30V2.94309H11.6842V0.824951Z"/>
</mask>
<path d="M6 4.49369L5.72886 4.07359L5.07797 4.49369L5.72886 4.91378L6 4.49369ZM11.6842 0.824951H12.1842V-0.0928614L11.4131 0.404853L11.6842 0.824951ZM11.6842 8.16242L11.4131 8.58252L12.1842 9.08024V8.16242H11.6842ZM11.6842 6.12031V5.62031H11.1842V6.12031H11.6842ZM30 6.12031V6.62031H30.5V6.12031H30ZM30 2.94309H30.5V2.44309H30V2.94309ZM11.6842 2.94309H11.1842V3.44309H11.6842V2.94309ZM6.27114 4.91378L11.9554 1.24505L11.4131 0.404853L5.72886 4.07359L6.27114 4.91378ZM11.9554 7.74233L6.27114 4.07359L5.72886 4.91378L11.4131 8.58252L11.9554 7.74233ZM11.1842 6.12031V8.16242H12.1842V6.12031H11.1842ZM30 5.62031H11.6842V6.62031H30V5.62031ZM29.5 2.94309V6.12031H30.5V2.94309H29.5ZM11.6842 3.44309H30V2.44309H11.6842V3.44309ZM11.1842 0.824951V2.94309H12.1842V0.824951H11.1842Z" fill="#121212" mask="url(#path-1-inside-1_586_939)"/>
<mask id="path-3-inside-2_586_939" fill="white">
<path fill-rule="evenodd" clip-rule="evenodd" d="M24.3158 10.1624L30 13.8311L24.3158 17.4998V15.4577H6V12.2805H24.3158V10.1624Z"/>
</mask>
<path d="M30 13.8311L30.2711 13.411L30.922 13.8311L30.2711 14.2512L30 13.8311ZM24.3158 10.1624H23.8158V9.24454L24.5869 9.74226L24.3158 10.1624ZM24.3158 17.4998L24.5869 17.9199L23.8158 18.4176V17.4998H24.3158ZM24.3158 15.4577V14.9577H24.8158V15.4577H24.3158ZM6 15.4577V15.9577H5.5V15.4577H6ZM6 12.2805H5.5V11.7805H6V12.2805ZM24.3158 12.2805H24.8158V12.7805H24.3158V12.2805ZM29.7289 14.2512L24.0446 10.5825L24.5869 9.74226L30.2711 13.411L29.7289 14.2512ZM24.0446 17.0797L29.7289 13.411L30.2711 14.2512L24.5869 17.9199L24.0446 17.0797ZM24.8158 15.4577V17.4998H23.8158V15.4577H24.8158ZM6 14.9577H24.3158V15.9577H6V14.9577ZM6.5 12.2805V15.4577H5.5V12.2805H6.5ZM24.3158 12.7805H6V11.7805H24.3158V12.7805ZM24.8158 10.1624V12.2805H23.8158V10.1624H24.8158Z" fill="#121212" mask="url(#path-3-inside-2_586_939)"/>
<!-- <path d="M0.36 30.512C0.36 30.32 0.376 30.116 0.408 29.9C0.448 29.676 0.504 29.44 0.576 29.192C0.656 28.936 0.752 28.668 0.864 28.388L1.728 28.724C1.648 28.948 1.576 29.16 1.512 29.36C1.456 29.56 1.412 29.748 1.38 29.924C1.356 30.1 1.344 30.268 1.344 30.428C1.344 30.764 1.416 31.048 1.56 31.28C1.712 31.52 1.92 31.716 2.184 31.868C2.448 32.02 2.748 32.132 3.084 32.204C3.428 32.276 3.792 32.312 4.176 32.312C4.64 32.312 5.072 32.272 5.472 32.192C5.88 32.112 6.236 31.996 6.54 31.844C6.852 31.7 7.096 31.532 7.272 31.34C7.448 31.156 7.536 30.956 7.536 30.74C7.536 30.636 7.496 30.54 7.416 30.452C7.336 30.364 7.216 30.28 7.056 30.2C6.896 30.12 6.704 30.044 6.48 29.972C6.256 29.892 6 29.812 5.712 29.732L5.94 28.736C6.356 28.896 6.724 29.032 7.044 29.144C7.364 29.248 7.644 29.332 7.884 29.396C8.124 29.46 8.332 29.508 8.508 29.54C8.684 29.564 8.832 29.576 8.952 29.576C9.12 29.576 9.24 29.624 9.312 29.72C9.392 29.808 9.432 29.916 9.432 30.044C9.432 30.172 9.376 30.292 9.264 30.404C9.152 30.508 9.008 30.56 8.832 30.56C8.784 30.56 8.736 30.56 8.688 30.56C8.64 30.56 8.588 30.56 8.532 30.56C8.484 30.56 8.436 30.56 8.388 30.56C8.404 30.632 8.416 30.688 8.424 30.728C8.432 30.776 8.436 30.836 8.436 30.908C8.436 31.204 8.332 31.492 8.124 31.772C7.924 32.052 7.628 32.304 7.236 32.528C6.844 32.76 6.368 32.944 5.808 33.08C5.256 33.216 4.624 33.284 3.912 33.284C3.28 33.284 2.692 33.18 2.148 32.972C1.612 32.772 1.18 32.468 0.852 32.06C0.524 31.652 0.36 31.136 0.36 30.512ZM4.776 35.552C4.608 35.552 4.464 35.492 4.344 35.372C4.232 35.26 4.176 35.124 4.176 34.964C4.176 34.804 4.232 34.664 4.344 34.544C4.464 34.424 4.608 34.364 4.776 34.364C4.936 34.364 5.072 34.424 5.184 34.544C5.304 34.664 5.364 34.804 5.364 34.964C5.364 35.124 5.304 35.26 5.184 35.372C5.072 35.492 4.936 35.552 4.776 35.552ZM3.132 35.552C2.964 35.552 2.82 35.492 2.7 35.372C2.588 35.26 2.532 35.124 2.532 34.964C2.532 34.804 2.588 34.664 2.7 34.544C2.82 34.424 2.964 34.364 3.132 34.364C3.292 34.364 3.428 34.424 3.54 34.544C3.66 34.664 3.72 34.804 3.72 34.964C3.72 35.124 3.66 35.26 3.54 35.372C3.428 35.492 3.292 35.552 3.132 35.552ZM8.83594 30.56L8.95594 29.576C9.42794 29.576 9.79594 29.56 10.0599 29.528C10.3239 29.488 10.5119 29.396 10.6239 29.252C10.7359 29.1 10.7919 28.864 10.7919 28.544C10.7919 28.344 10.7599 28.108 10.6959 27.836C10.6319 27.556 10.5479 27.26 10.4439 26.948C10.3399 26.636 10.2279 26.328 10.1079 26.024L11.0799 25.664C11.1839 25.92 11.2799 26.212 11.3679 26.54C11.4639 26.868 11.5439 27.192 11.6079 27.512C11.6719 27.832 11.7039 28.112 11.7039 28.352C11.7039 28.752 11.6479 29.092 11.5359 29.372C11.4319 29.652 11.2639 29.88 11.0319 30.056C10.7999 30.232 10.4999 30.36 10.1319 30.44C9.77194 30.52 9.33994 30.56 8.83594 30.56ZM11.4519 24.416C11.2839 24.416 11.1399 24.36 11.0199 24.248C10.9079 24.128 10.8519 23.988 10.8519 23.828C10.8519 23.668 10.9079 23.528 11.0199 23.408C11.1399 23.288 11.2839 23.228 11.4519 23.228C11.6119 23.228 11.7479 23.288 11.8599 23.408C11.9799 23.528 12.0399 23.668 12.0399 23.828C12.0399 23.988 11.9799 24.128 11.8599 24.248C11.7479 24.36 11.6119 24.416 11.4519 24.416ZM9.80794 24.416C9.63994 24.416 9.49594 24.36 9.37594 24.248C9.26394 24.128 9.20794 23.988 9.20794 23.828C9.20794 23.668 9.26394 23.528 9.37594 23.408C9.49594 23.288 9.63994 23.228 9.80794 23.228C9.96794 23.228 10.1039 23.288 10.2159 23.408C10.3359 23.528 10.3959 23.668 10.3959 23.828C10.3959 23.988 10.3359 24.128 10.2159 24.248C10.1039 24.36 9.96794 24.416 9.80794 24.416ZM15.9139 30.56C15.2739 30.56 14.7819 30.488 14.4379 30.344C14.1019 30.2 13.8699 29.976 13.7419 29.672C13.6139 29.368 13.5419 28.976 13.5259 28.496L13.2859 21.932H14.2699L14.5099 28.112C14.5259 28.504 14.5619 28.808 14.6179 29.024C14.6819 29.232 14.8179 29.376 15.0259 29.456C15.2419 29.536 15.5779 29.576 16.0339 29.576C16.2019 29.576 16.3219 29.624 16.3939 29.72C16.4739 29.808 16.5139 29.916 16.5139 30.044C16.5139 30.172 16.4579 30.292 16.3459 30.404C16.2339 30.508 16.0899 30.56 15.9139 30.56ZM15.9141 30.56L16.0341 29.576C16.4261 29.576 16.7381 29.552 16.9701 29.504C17.2021 29.456 17.3701 29.36 17.4741 29.216C17.5781 29.064 17.6301 28.84 17.6301 28.544C17.6301 28.344 17.5981 28.108 17.5341 27.836C17.4701 27.556 17.3861 27.26 17.2821 26.948C17.1781 26.636 17.0661 26.328 16.9461 26.024L17.9181 25.664C18.0221 25.92 18.1181 26.212 18.2061 26.54C18.3021 26.868 18.3821 27.192 18.4461 27.512C18.5101 27.832 18.5421 28.112 18.5421 28.352C18.5421 28.672 18.5061 28.956 18.4341 29.204C18.3701 29.444 18.2701 29.652 18.1341 29.828C17.9981 29.996 17.8221 30.136 17.6061 30.248C17.3981 30.352 17.1541 30.432 16.8741 30.488C16.5941 30.536 16.2741 30.56 15.9141 30.56ZM17.4501 24.416C17.2821 24.416 17.1381 24.36 17.0181 24.248C16.9061 24.128 16.8501 23.988 16.8501 23.828C16.8501 23.668 16.9061 23.528 17.0181 23.408C17.1381 23.288 17.2821 23.228 17.4501 23.228C17.6101 23.228 17.7461 23.288 17.8581 23.408C17.9781 23.528 18.0381 23.668 18.0381 23.828C18.0381 23.988 17.9781 24.128 17.8581 24.248C17.7461 24.36 17.6101 24.416 17.4501 24.416ZM26.3247 30.56C25.8447 30.56 25.4487 30.52 25.1367 30.44C24.8327 30.36 24.5927 30.236 24.4167 30.068C24.2487 29.9 24.1287 29.688 24.0567 29.432C23.9927 29.168 23.9527 28.856 23.9367 28.496L23.6967 21.932H24.6807L24.9207 28.112C24.9367 28.504 24.9727 28.808 25.0287 29.024C25.0927 29.232 25.2287 29.376 25.4367 29.456C25.6527 29.536 25.9887 29.576 26.4447 29.576C26.6127 29.576 26.7327 29.624 26.8047 29.72C26.8847 29.808 26.9247 29.916 26.9247 30.044C26.9247 30.172 26.8687 30.292 26.7567 30.404C26.6447 30.508 26.5007 30.56 26.3247 30.56ZM20.8407 30.56C20.6247 30.56 20.4047 30.54 20.1807 30.5C19.9647 30.468 19.8127 30.444 19.7247 30.428L19.8567 29.48C20.4087 29.552 20.9287 29.564 21.4167 29.516C21.9047 29.468 22.3287 29.332 22.6887 29.108C23.0567 28.876 23.3447 28.528 23.5527 28.064C23.7607 27.6 23.8647 26.996 23.8647 26.252L24.4407 27.692C24.3447 28.196 24.2007 28.62 24.0087 28.964C23.8167 29.3 23.5927 29.576 23.3367 29.792C23.0887 30 22.8207 30.16 22.5327 30.272C22.2447 30.384 21.9567 30.46 21.6687 30.5C21.3807 30.54 21.1047 30.56 20.8407 30.56ZM23.4447 28.916C23.3167 28.668 23.1367 28.38 22.9047 28.052C22.6727 27.716 22.3927 27.352 22.0647 26.96C21.7367 26.568 21.3647 26.16 20.9487 25.736C20.5407 25.312 20.0967 24.884 19.6167 24.452L20.2647 23.768C20.7927 24.272 21.2607 24.744 21.6687 25.184C22.0847 25.616 22.4487 26.024 22.7607 26.408C23.0727 26.784 23.3407 27.128 23.5647 27.44C23.7887 27.752 23.9767 28.036 24.1287 28.292L23.4447 28.916ZM26.3203 30.56L26.4403 29.576C26.9443 29.576 27.3323 29.572 27.6043 29.564C27.8843 29.556 28.0883 29.548 28.2163 29.54C28.3443 29.524 28.4323 29.516 28.4803 29.516C28.3363 29.436 28.1683 29.312 27.9763 29.144C27.7843 28.968 27.6163 28.748 27.4723 28.484C27.3283 28.212 27.2563 27.892 27.2563 27.524C27.2563 27.068 27.3603 26.668 27.5683 26.324C27.7843 25.98 28.0763 25.712 28.4443 25.52C28.8203 25.328 29.2483 25.232 29.7283 25.232C29.9123 25.232 30.1083 25.248 30.3163 25.28C30.5243 25.312 30.7243 25.36 30.9163 25.424L30.7123 26.348C30.5523 26.308 30.3843 26.276 30.2083 26.252C30.0323 26.228 29.8723 26.216 29.7283 26.216C29.4403 26.216 29.1843 26.272 28.9603 26.384C28.7363 26.488 28.5603 26.636 28.4323 26.828C28.3043 27.02 28.2403 27.252 28.2403 27.524C28.2403 27.732 28.2843 27.924 28.3723 28.1C28.4603 28.268 28.5763 28.42 28.7203 28.556C28.8643 28.692 29.0243 28.804 29.2003 28.892C29.3763 28.98 29.5483 29.048 29.7163 29.096C29.8923 29.144 30.0483 29.164 30.1843 29.156C30.2803 29.124 30.3683 29.096 30.4483 29.072C30.5283 29.048 30.6163 29.02 30.7123 28.988C30.8163 28.948 30.9403 28.896 31.0843 28.832C31.2363 28.768 31.4283 28.684 31.6603 28.58L31.9963 29.456C31.4603 29.672 30.9123 29.864 30.3523 30.032C29.8003 30.2 29.1963 30.332 28.5403 30.428C27.8923 30.516 27.1523 30.56 26.3203 30.56ZM33.4595 30.5L33.2195 21.932H34.1915L34.4315 30.5H33.4595ZM33.1355 34.136L32.9915 33.488C33.1995 33.44 33.3675 33.4 33.4955 33.368C33.6235 33.336 33.7675 33.3 33.9275 33.26L33.8675 33.512C33.6595 33.448 33.4595 33.312 33.2675 33.104C33.0835 32.896 32.9915 32.66 32.9915 32.396C32.9915 32.156 33.0475 31.952 33.1595 31.784C33.2795 31.624 33.4315 31.504 33.6155 31.424C33.8075 31.344 34.0115 31.304 34.2275 31.304C34.3155 31.304 34.4075 31.312 34.5035 31.328C34.6075 31.344 34.7035 31.368 34.7915 31.4L34.6955 32C34.6155 31.984 34.5395 31.968 34.4675 31.952C34.3955 31.936 34.3155 31.928 34.2275 31.928C34.0435 31.928 33.8995 31.964 33.7955 32.036C33.6915 32.116 33.6395 32.224 33.6395 32.36C33.6395 32.528 33.6915 32.672 33.7955 32.792C33.9075 32.912 34.0315 33.004 34.1675 33.068C34.3115 33.14 34.4275 33.176 34.5155 33.176L34.0235 33.224C34.2395 33.168 34.4395 33.108 34.6235 33.044C34.8155 32.988 34.9875 32.932 35.1395 32.876L35.3315 33.488C35.1395 33.56 34.9115 33.636 34.6475 33.716C34.3915 33.796 34.1315 33.872 33.8675 33.944C33.6035 34.016 33.3595 34.08 33.1355 34.136Z" fill="black"/> -->
</svg>
